<?xml version="1.0" encoding="UTF-8" standalone="no"?>
<svg
   xmlns:dc="http://purl.org/dc/elements/1.1/"
   xmlns:cc="http://creativecommons.org/ns#"
   xmlns:rdf="http://www.w3.org/1999/02/22-rdf-syntax-ns#"
   xmlns:svg="http://www.w3.org/2000/svg"
   xmlns="http://www.w3.org/2000/svg"
   xmlns:sodipodi="http://sodipodi.sourceforge.net/DTD/sodipodi-0.dtd"
   xmlns:inkscape="http://www.inkscape.org/namespaces/inkscape"
   id="Layer_1"
   data-name="Layer 1"
   viewBox="0 0 609.78749 567.31438"
   version="1.1"
   sodipodi:docname="logo.svg"
   width="609.78748"
   height="567.31439"
   inkscape:version="1.0.1 (3bc2e813f5, 2020-09-07)">
  <metadata
     id="metadata45">
    <rdf:RDF>
      <cc:Work
         rdf:about="">
        <dc:format>image/svg+xml</dc:format>
        <dc:type
           rdf:resource="http://purl.org/dc/dcmitype/StillImage" />
      </cc:Work>
    </rdf:RDF>
  </metadata>
  <sodipodi:namedview
     pagecolor="#ffffff"
     bordercolor="#666666"
     borderopacity="1"
     objecttolerance="10"
     gridtolerance="10"
     guidetolerance="10"
     inkscape:pageopacity="0"
     inkscape:pageshadow="2"
     inkscape:window-width="1920"
     inkscape:window-height="1013"
     id="namedview43"
     showgrid="false"
     inkscape:zoom="0.38054372"
     inkscape:cx="319.28002"
     inkscape:cy="325.37016"
     inkscape:window-x="-9"
     inkscape:window-y="-9"
     inkscape:window-maximized="1"
     inkscape:current-layer="Layer_1"
     inkscape:lockguides="false" />
  <defs
     id="defs4">
    <style
       id="style2">.cls-1,.cls-7{fill-rule:evenodd;}.cls-2{fill:none;}.cls-14,.cls-3{fill:#ff0018;}.cls-4{fill:#ffa52c;}.cls-5{fill:#ffff41;}.cls-6,.cls-7{fill:#008018;}.cls-8{fill:#eb0914;}.cls-9{fill:#0000f9;}.cls-10{fill:#86007d;}.cls-11,.cls-12,.cls-13,.cls-14{isolation:isolate;}.cls-12{font-size:120px;}.cls-12,.cls-13{fill:#fff;font-family:PoorRichard-Regular, Poor Richard;}.cls-13{font-size:72px;}.cls-14{font-size:17.08px;font-family:ArialMT, Arial;letter-spacing:0.18em;}.cls-15{letter-spacing:0.13em;}.cls-16{letter-spacing:0.18em;}</style>
  </defs>
  <path
     class="cls-1"
     d="M 609.7875,141.84174 C 609.7875,63.58967 551.3642,0 479.3807,0 H 130.4068 C 58.4233,0.0525 0,63.58967 0,141.84174 v 283.63094 c 0,78.25207 58.4233,141.84174 130.4068,141.84174 h 348.9739 c 71.9644,0 130.4068,-63.53711 130.4068,-141.84174 z"
     id="path6"
     style="stroke-width:0.316813" />
  <rect
     id="Artboard1"
     class="cls-2"
     x="-467.12"
     y="-208.02985"
     width="1531.6"
     height="1079.4" />
  <g
     id="Artboard11"
     transform="translate(-1277.12,-220.62984)">
    <path
       class="cls-3"
       d="m 940.46,313 c 0.1,7.1 0.9,0.7 0.6,3.6 -0.5,6 0.2,-0.8 -1.3,13.1 -5.6,53.7 -6.3,56.9 -6.3,87.3 0,16.9 0.2,24.2 1.1,36.2 a 402.4,402.4 0 0 0 5.3,42.4 c 3.2,18.1 5.3,45.3 5.3,45.6 0,0.3 -2,-10 -17.8,-20.3 -8.8,-5.7 -21.7,-9.1 -21.9,-9.1 -2.1,-0.5 -16.5,-4.4 -23.9,-4.4 -14.3,0.1 -19.3,0.6 -36.7,2.1 -15.2,1.3 -23.4,5.4 -39,9.4 -14.4,3.6 -55.7,23.5 -55.9,23.4 -5.4,-2 31.2,-85.2 41.3,-113.7 12.4,-34.8 16.7,-46.1 25.2,-78.7 7.7,-29.6 15.1,-42.6 21.9,-68.2 4.3,-16.5 20.6,-54.1 24.4,-65.1 5.9,-6.8 76.9,95.6 79,95.4 0.2,-0.1 -1.9,13.9 -1.3,1 z"
       transform="translate(616,12.6)"
       id="path9" />
    <path
       class="cls-4"
       d="m 960.36,314.23 c -0.1,0.9 4.6,53.4 4.9,90 0.3,35.7 -1.2,86.1 -1.9,101.6 -0.7,15.5 -3.4,36.7 -3.4,36.8 0,0.1 11.4,-12.3 13,-13.4 14.1,-9.7 20.2,-8.5 39.5,-8.4 34.9,0.1 68.1,37.8 68.1,37.8 -20.4,-52.9 -21.7,-66.1 -30.8,-92.5 -4.7,-13.6 -14.1,-39.1 -22.3,-56.3 -17.4,-36.5 -21.8,-45.3 -26.3,-50.9 -2.5,-2.8 -5.7,-6.5 -7.1,-8 -6.9,-7.1 -1.1,-1.4 -10.6,-11.9 -11.8,-13.1 -23.1,-25.8 -23.1,-24.8 z"
       transform="translate(616,12.6)"
       id="path11" />
    <path
       class="cls-5"
       d="m 1061.66,377.43 c 0.5,0.8 20.1,19.3 43.9,47.5 7.5,8.9 23.2,29.8 32.3,40.2 17.8,20.2 25.1,32.9 31.1,41.5 9,12.7 53.7,70.2 53.6,70.3 -0.1,0.1 -46.9,-14.6 -71.7,-20.3 -18.3,-2.3 -28.7,-3.3 -46.3,-1.8 a 68.46,68.46 0 0 0 -20.7,5.3 c 0,0 2.4,-42 -1.3,-68.3 -2.2,-16.2 -9.3,-34.9 -20,-65.4 -3.8,-10.9 -6.4,-17.6 -9.2,-25.1 -3.5,-9.4 -9.6,-20.5 -13.1,-24.8 -13,-16.2 -35.7,-37.2 -35.6,-37.3 0.1,-0.1 22.3,12.7 37.6,23.4 a 224.59,224.59 0 0 1 19.4,14.8 z"
       transform="translate(616,12.6)"
       id="path13" />
    <path
       class="cls-6"
       d="m 821.36,534 c -23.8,1.5 -44.4,6 -63.7,13.9 -5.4,2.2 -11.3,4.9 -12.2,5.6 -0.4,0.4 0.6,1.7 6.5,9.3 3.9,4.9 7.2,8.9 7.4,8.9 a 30.68,30.68 0 0 0 4.1,-2 c 17.7,-9.6 38.9,-15.6 64.2,-17.9 6.8,-0.6 27,-0.9 36.1,-0.4 a 474.74,474.74 0 0 1 49.3,5.2 c 16.9,2.6 32.4,5.5 68.8,12.8 59.9,12.1 79.6,14.8 118.8,16 16.2,0.5 66,-0.1 77.1,-0.9 l 3.2,-0.2 77.6,-3.2 c -3,0 -31.8,1.9 -59.9,2.5 -26.9,0.6 -53.2,-0.1 -57.7,-0.2 -40.4,-1.3 -66.8,-3.9 -94.6,-9.2 -14,-2.7 -28.1,-6 -59.2,-13.9 -57,-14.5 -78.1,-19.1 -104.8,-22.9 a 302.29,302.29 0 0 0 -44.9,-3.3 c -7.8,-0.2 -15.2,-0.2 -16.1,-0.1 z"
       transform="translate(616,12.6)"
       id="path15" />
    <path
       class="cls-7"
       d="m 1181.16,585.53 -3.2,0.2 c -11.1,0.8 -61.1,1.4 -77.3,0.9 -39.4,-1.2 -59.1,-3.9 -119.1,-16 -36.4,-7.4 -51.9,-10.2 -68.8,-12.8 a 473.05,473.05 0 0 0 -49.2,-5.2 c -9,-0.4 -29.1,-0.2 -35.9,0.4 -25.1,2.4 -46.1,8.3 -63.7,17.8 -1.7,0.9 -3.3,1.7 -3.9,2 a 2.31,2.31 0 0 1 -0.9,0.2 1.86,1.86 0 0 1 -1.2,-0.5 c -0.7,-0.7 -3.8,-4.4 -7.3,-8.9 -5,-6.3 -6.6,-8.5 -6.8,-9.3 a 1.38,1.38 0 0 1 0.5,-1.7 v 0 c 0.9,-0.7 6.9,-3.5 12.5,-5.8 19.4,-7.9 40.1,-12.5 64.1,-14 v 0 c 1,-0.1 8.4,-0.1 16.4,0 a 280.94,280.94 0 0 1 45.1,3.3 c 26.7,3.8 47.8,8.4 104.9,22.9 31.1,7.9 45.1,11.2 59.2,13.9 27.7,5.3 54.1,7.8 94.4,9.2 4.5,0.1 30.7,0.8 57.6,0.2 l 54.7,-2.3 c 2.8,-0.1 4.6,-0.2 5.3,-0.2 a 1.3,1.3 0 1 1 0,2.6 l -5.7,0.2 c -10.3,0.5 -32.4,1.8 -54.2,2.2 z m -50.2,-1.4 c -35,-1.4 -59.3,-4 -84.8,-8.9 -14.1,-2.7 -28.1,-6 -59.3,-13.9 -56.9,-14.5 -78,-19.1 -104.6,-22.8 a 286.48,286.48 0 0 0 -44.6,-3.2 h -16.2 c -23.7,1.5 -44.1,6 -63.2,13.8 -4.5,1.8 -9.2,4 -11.1,5 a 9.22,9.22 0 0 0 0.5,0.8 c 1,1.3 2.7,3.5 5.5,7.1 2.6,3.4 5.5,6.7 6.6,8 0.7,-0.4 1.9,-1 3,-1.5 17.8,-9.7 39.3,-15.7 64.8,-18.1 6.9,-0.6 27.2,-0.9 36.3,-0.4 a 481,481 0 0 1 49.5,5.2 c 16.9,2.6 32.4,5.5 68.9,12.8 59.8,12.1 79.4,14.7 118.6,16 6.3,0.2 17.8,0.2 30.1,0.1 z"
       transform="translate(616,12.6)"
       id="path17" />
    <path
       class="cls-8"
       d="M 955.06,544.63"
       transform="translate(616,12.6)"
       id="path19" />
    <path
       class="cls-9"
       d="m 843.26,560.73 c -16,1.2 -29.4,3.9 -42.3,8.7 -4.6,1.7 -11.5,4.8 -11.9,5.3 -0.2,0.3 9.6,12.7 10.1,12.7 a 53.37,53.37 0 0 0 4.9,-2.3 c 12.9,-6.3 27,-10.1 44.3,-11.8 7.3,-0.7 26.2,-0.7 35.2,0 21,1.7 37.1,4.3 80.9,12.9 38.2,7.5 51.9,9.5 73.7,10.5 4.9,0.2 11.5,0.6 14.7,0.7 7.1,0.4 17.7,0.4 26.7,0 3.7,-0.1 10.6,-0.4 15.4,-0.5 8.2,-0.2 8.5,-0.3 4.9,-0.4 -2.1,-0.1 -9.5,-0.4 -16.4,-0.6 -35,-0.9 -57.5,-3.2 -81.9,-8.3 -7.7,-1.6 -19.2,-4.3 -36.7,-8.7 -48,-11.9 -67.4,-15.7 -91.6,-17.7 -6.4,-0.6 -24.9,-0.9 -30,-0.5 z"
       transform="translate(616,12.6)"
       id="path21" />
    <path
       class="cls-10"
       d="m 866.56,585.63 a 162,162 0 0 0 -34.8,5.3 78.65,78.65 0 0 0 -9.8,3.2 c -0.2,0.2 7.9,7.8 8.3,7.8 0.1,0 1.9,-0.6 4,-1.4 10.6,-3.9 22.2,-6.2 36.4,-7.3 6,-0.4 21.5,-0.4 28.9,0 17.3,1.1 30.4,2.6 66.5,7.9 31.4,4.6 42.6,5.8 60.5,6.5 4,0.1 9.4,0.3 12.1,0.5 5.8,0.2 14.5,0.2 21.9,0 3,-0.1 8.7,-0.2 12.7,-0.3 6.7,-0.1 7,-0.2 4,-0.3 -1.7,-0.1 -7.8,-0.2 -13.5,-0.3 -28.8,-0.6 -47.2,-2 -67.3,-5.1 -6.3,-1 -15.7,-2.7 -30.1,-5.3 -39.4,-7.3 -55.4,-9.6 -75.3,-10.9 -5.1,-0.4 -20.3,-0.6 -24.5,-0.3 z"
       transform="translate(616,12.6)"
       id="path23" />
    <path
       class="cls-10"
       d="m 866.56,585.63 a 162,162 0 0 0 -34.8,5.3 78.65,78.65 0 0 0 -9.8,3.2 c -0.2,0.2 7.9,7.8 8.3,7.8 0.1,0 1.9,-0.6 4,-1.4 10.6,-3.9 22.2,-6.2 36.4,-7.3 6,-0.4 21.5,-0.4 28.9,0 17.3,1.1 30.4,2.6 66.5,7.9 31.4,4.6 42.6,5.8 60.5,6.5 4,0.1 9.4,0.3 12.1,0.5 5.8,0.2 14.5,0.2 21.9,0 3,-0.1 8.7,-0.2 12.7,-0.3 6.7,-0.1 7,-0.2 4,-0.3 -1.7,-0.1 -7.8,-0.2 -13.5,-0.3 -28.8,-0.6 -47.2,-2 -67.3,-5.1 -6.3,-1 -15.7,-2.7 -30.1,-5.3 -39.4,-7.3 -55.4,-9.6 -75.3,-10.9 -5.1,-0.4 -20.3,-0.6 -24.5,-0.3 z"
       transform="translate(616,12.6)"
       id="path25" />
    <rect
       class="cls-8"
       x="1279.03"
       y="659.65002"
       width="601.08002"
       height="0.80000001"
       id="rect27" />
  </g>
  <g
     class="cls-11"
     id="g34"
     transform="translate(-1277.12,-220.62984)">
    <text
       class="cls-12"
       transform="matrix(1.47,0.01,-0.01,1,1313.65,685.93)"
       id="text30">G</text>
    <text
       class="cls-13"
       transform="matrix(1.47,0.01,-0.01,1,1433.68,686.8)"
       id="text32">ALWAY</text>
  </g>
  <text
     class="cls-14"
     transform="scale(1.1401754,0.87705803)"
     id="text40"
     x="106.08013"
     y="566.17712"
     style="stroke-width:1.14018">International<tspan
   class="cls-15"
   x="259.0575"
   y="566.17712"
   id="tspan36"
   style="stroke-width:1.14018" /><tspan
   class="cls-16"
   x="266.92474"
   y="566.17712"
   id="tspan38"
   style="stroke-width:1.14018">Arts Festival</tspan></text>
</svg>
